HIERARCHY
ROOT joint_0
{
	OFFSET 0.000000 0.000000 0.000000
	CHANNELS 6 Xposition Yposition Zposition Zrotation Yrotation Xrotation 
	JOINT joint_1
	{
		OFFSET 6.004005 -1.946999 100.587036
		CHANNELS 3 Zrotation Yrotation Xrotation
		JOINT joint_2
		{
			OFFSET -4.601006 -0.824997 91.925903
			CHANNELS 3 Zrotation Yrotation Xrotation
			JOINT joint_3
			{
				OFFSET -5.420998 -1.130005 91.774048
				CHANNELS 3 Zrotation Yrotation Xrotation
				JOINT joint_4
				{
					OFFSET 4.308998 -3.777992 123.473999
					CHANNELS 3 Zrotation Yrotation Xrotation
					JOINT joint_5
					{
						OFFSET 25.565002 -6.305008 79.437988
						CHANNELS 3 Zrotation Yrotation Xrotation
						End Site
						{
							OFFSET 0.000000 0.000000 0.000000
						}
					}
				}
				JOINT joint_6
				{
					OFFSET -1.750000 -28.655998 68.557983
					CHANNELS 3 Zrotation Yrotation Xrotation
					JOINT joint_7
					{
						OFFSET -17.692001 -116.544006 -17.244019
						CHANNELS 3 Zrotation Yrotation Xrotation
						JOINT joint_8
						{
							OFFSET 27.063004 -23.640991 -266.895020
							CHANNELS 3 Zrotation Yrotation Xrotation
							JOINT joint_9
							{
								OFFSET 40.722000 -15.761017 -232.488953
								CHANNELS 3 Zrotation Yrotation Xrotation
								End Site
								{
									OFFSET 0.000000 0.000000 0.000000
								}
							}
						}
					}
				}
				JOINT joint_10
				{
					OFFSET 6.593002 24.457001 69.892944
					CHANNELS 3 Zrotation Yrotation Xrotation
					JOINT joint_11
					{
						OFFSET 24.311996 114.920002 -19.872925
						CHANNELS 3 Zrotation Yrotation Xrotation
						JOINT joint_12
						{
							OFFSET 21.081001 15.319000 -268.037964
							CHANNELS 3 Zrotation Yrotation Xrotation
							JOINT joint_13
							{
								OFFSET 27.794006 -8.947001 -234.744080
								CHANNELS 3 Zrotation Yrotation Xrotation
								End Site
								{
									OFFSET 0.000000 0.000000 0.000000
								}
							}
						}
					}
				}
			}
		}
	}
	JOINT joint_14
	{
		OFFSET -6.627998 -80.520004 -98.790039
		CHANNELS 3 Zrotation Yrotation Xrotation
		JOINT joint_15
		{
			OFFSET -43.638000 -13.751999 -502.538971
			CHANNELS 3 Zrotation Yrotation Xrotation
			JOINT joint_16
			{
				OFFSET -39.532999 -9.912994 -398.071007
				CHANNELS 3 Zrotation Yrotation Xrotation
				JOINT joint_17
				{
					OFFSET 174.940004 -34.660995 -75.688002
					CHANNELS 3 Zrotation Yrotation Xrotation
					End Site
					{
						OFFSET 0.000000 0.000000 0.000000
					}
				}
			}
		}
	}
	JOINT joint_18
	{
		OFFSET 12.591003 79.842003 -98.765015
		CHANNELS 3 Zrotation Yrotation Xrotation
		JOINT joint_19
		{
			OFFSET -39.080002 -1.297001 -503.101013
			CHANNELS 3 Zrotation Yrotation Xrotation
			JOINT joint_20
			{
				OFFSET -51.570000 -0.514000 -396.815987
				CHANNELS 3 Zrotation Yrotation Xrotation
				JOINT joint_21
				{
					OFFSET 178.987999 -11.521999 -73.244003
					CHANNELS 3 Zrotation Yrotation Xrotation
					End Site
					{
						OFFSET 0.000000 0.000000 0.000000
					}
				}
			}
		}
	}
}
MOTION
Frames: 6
Frame Time: 0.016667
64.263000 -125.767000 1097.313960 -2.236657 -0.867793 -1.783289 -0.013051 1.017858 2.010565 -0.150694 -0.356627 -0.553264 -0.081182 0.478950 0.435055 0.080091 -0.225642 -0.304041 0.000000 0.000000 0.000000 1.375613 0.238527 1.985392 -0.500048 1.072071 -1.675626 -0.404011 -1.443437 -2.903394 0.000000 0.000000 0.000000 -0.676331 0.254364 0.141544 0.284222 0.696107 -1.161514 0.544096 -1.736830 3.921499 0.000000 0.000000 0.000000 0.588687 0.746751 -0.014764 0.419427 2.371669 1.429501 0.559806 0.765003 0.393365 0.000000 0.000000 0.000000 2.020922 -1.258145 3.127355 2.205336 4.345295 0.575223 2.181824 0.142374 0.899057 0.000000 0.000000 0.000000 
66.273000 -126.559000 1097.623050 -1.956300 -0.529786 -1.738996 0.166929 0.893886 1.898878 0.041092 -0.266447 -0.466406 0.098488 0.357124 0.364545 0.068584 -0.416328 -0.315595 0.000000 0.000000 0.000000 0.939835 0.876268 1.840972 -0.528564 1.600159 -1.493079 -0.293709 -2.445612 -2.658009 0.000000 0.000000 0.000000 -0.412405 0.239750 0.341021 0.280558 0.696212 -1.250176 0.526531 -1.902315 3.770581 0.000000 0.000000 0.000000 0.503566 0.679937 -0.052369 0.329787 2.061059 1.518015 0.473252 0.819880 0.366872 0.000000 0.000000 0.000000 1.923642 -1.466599 3.142462 2.114370 4.187608 0.515908 2.086917 0.234266 0.866332 0.000000 0.000000 0.000000 
69.271000 -127.635000 1098.177000 -1.490207 -0.031497 -1.669709 0.449265 0.756460 1.759941 0.340537 -0.104607 -0.315755 0.376044 0.131175 0.230124 0.066745 -0.707239 -0.382508 0.000000 0.000000 0.000000 0.428615 1.914618 1.565797 -0.573162 2.478972 -1.169766 -0.119906 -4.102596 -2.291015 0.000000 0.000000 0.000000 0.088195 0.167658 0.699060 0.259530 0.648392 -1.433207 0.492305 -2.077120 3.502635 0.000000 0.000000 0.000000 0.364518 0.624146 -0.111828 0.186518 1.534767 1.651892 0.333148 0.909419 0.324113 0.000000 0.000000 0.000000 1.763067 -1.768922 3.155646 1.962340 3.940603 0.436554 1.930959 0.361755 0.810992 0.000000 0.000000 0.000000 
73.616000 -129.026990 1098.786990 -1.055776 0.874558 -1.546612 0.663973 0.446651 1.546783 0.575795 0.034543 -0.184194 0.592252 -0.061636 0.110942 0.033903 -1.533966 -0.487947 0.000000 0.000000 0.000000 0.291618 2.989685 1.315892 -0.614804 3.423554 -0.646360 -0.004489 -5.702027 -2.203434 0.000000 0.000000 0.000000 0.595220 0.296267 1.377415 0.292385 0.934887 -1.885864 0.470967 -2.896168 3.143398 0.000000 0.000000 0.000000 0.248228 0.167748 -0.219473 0.048961 1.059803 1.791472 0.200064 0.998089 0.284198 0.000000 0.000000 0.000000 1.608984 -2.391700 3.183999 1.827790 3.597629 0.228872 1.774634 0.499313 0.756152 0.000000 0.000000 0.000000 
79.849000 -130.813000 1099.348020 -0.826776 2.551545 -1.324002 0.672066 -0.263062 1.181782 0.612025 0.135907 -0.111923 0.617645 -0.195466 0.047185 -0.080839 -3.480726 -0.625769 0.000000 0.000000 0.000000 0.998254 3.941667 1.078856 -0.621631 4.293276 0.360260 -0.033239 -6.827848 -2.728213 0.000000 0.000000 0.000000 1.029762 0.958748 2.607538 0.451455 2.021747 -2.867700 0.481578 -5.313019 2.661845 0.000000 0.000000 0.000000 0.229798 -1.135022 -0.450349 -0.029492 0.743586 1.941728 0.127998 1.095258 0.272313 0.000000 0.000000 0.000000 1.503431 -3.616986 3.254059 1.767875 3.015795 -0.272095 1.650440 0.686574 0.717579 0.000000 0.000000 0.000000 
87.831000 -132.981000 1099.932010 -0.713140 4.896739 -1.018009 0.534429 -1.291099 0.701998 0.510005 0.250614 -0.080558 0.508459 -0.370778 0.011609 -0.275924 -6.408741 -0.765574 0.000000 0.000000 0.000000 2.356151 4.895723 0.853777 -0.588222 5.190089 1.795538 -0.161189 -7.709689 -3.698610 0.000000 0.000000 0.000000 1.551347 2.125164 4.116081 0.660230 3.727165 -4.081982 0.479266 -9.075998 2.013109 0.000000 0.000000 0.000000 0.281811 -3.117227 -0.792371 -0.068001 0.478543 2.113427 0.095090 1.254780 0.289692 0.000000 0.000000 0.000000 1.423735 -5.345015 3.368213 1.757769 2.182184 -1.028352 1.540280 0.993911 0.692184 0.000000 0.000000 0.000000 
